name Run_20002_IK.mot
datacolumns 164
datarows 4
range 0.38 0.41
endheader
time	         pelvis_tilt	         pelvis_list	     pelvis_rotation	           pelvis_tx	           pelvis_ty	           pelvis_tz	       hip_flexion_r	     hip_adduction_r	      hip_rotation_r	        knee_angle_r	       ankle_angle_r	       hip_flexion_l	     hip_adduction_l	      hip_rotation_l	        knee_angle_l	       ankle_angle_l	    lumbar_extension	      lumbar_bending	     lumbar_rotation	          arm_flex_r	           arm_add_r	           arm_rot_r	        elbow_flex_r	           pro_sup_r	          arm_flex_l	           arm_add_l	           arm_rot_l	        elbow_flex_l	           pro_sup_l	    subtalar_angle_r	         mtp_angle_r	    subtalar_angle_l	         mtp_angle_l	        wrist_flex_r	         wrist_dev_r	        wrist_flex_l	         wrist_dev_l	             LASI_tx	             LASI_ty	             LASI_tz	             RASI_tx	             RASI_ty	             RASI_tz	             LPSI_tx	             LPSI_ty	             LPSI_tz	             RPSI_tx	             RPSI_ty	             RPSI_tz	             RTH1_tx	             RTH1_ty	             RTH1_tz	             RTH2_tx	             RTH2_ty	             RTH2_tz	             RTH3_tx	             RTH3_ty	             RTH3_tz	             LTH1_tx	             LTH1_ty	             LTH1_tz	             LTH2_tx	             LTH2_ty	             LTH2_tz	             LTH3_tx	             LTH3_ty	             LTH3_tz	             RTB1_tx	             RTB1_ty	             RTB1_tz	             RTB2_tx	             RTB2_ty	             RTB2_tz	             RTB3_tx	             RTB3_ty	             RTB3_tz	             LTB1_tx	             LTB1_ty	             LTB1_tz	             LTB2_tx	             LTB2_ty	             LTB2_tz	             LTB3_tx	             LTB3_ty	             LTB3_tz	             RCAL_tx	             RCAL_ty	             RCAL_tz	             RTOE_tx	             RTOE_ty	             RTOE_tz	             RMT5_tx	             RMT5_ty	             RMT5_tz	             LCAL_tx	             LCAL_ty	             LCAL_tz	             LTOE_tx	             LTOE_ty	             LTOE_tz	             LMT5_tx	             LMT5_ty	             LMT5_tz	             LACR_tx	             LACR_ty	             LACR_tz	             RACR_tx	             RACR_ty	             RACR_tz	             CLAV_tx	             CLAV_ty	             CLAV_tz	               C7_tx	               C7_ty	               C7_tz	             RUA1_tx	             RUA1_ty	             RUA1_tz	             RUA2_tx	             RUA2_ty	             RUA2_tz	             RUA3_tx	             RUA3_ty	             RUA3_tz	             RLEL_tx	             RLEL_ty	             RLEL_tz	             RMEL_tx	             RMEL_ty	             RMEL_tz	             LUA1_tx	             LUA1_ty	             LUA1_tz	             LUA2_tx	             LUA2_ty	             LUA2_tz	             LUA3_tx	             LUA3_ty	             LUA3_tz	             LLEL_tx	             LLEL_ty	             LLEL_tz	             LMEL_tx	             LMEL_ty	             LMEL_tz	      RFAsuperior_tx	      RFAsuperior_ty	      RFAsuperior_tz	        RFAradius_tx	        RFAradius_ty	        RFAradius_tz	          RFAulna_tx	          RFAulna_ty	          RFAulna_tz	      LFAsuperior_tx	      LFAsuperior_ty	      LFAsuperior_tz	        LFAradius_tx	        LFAradius_ty	        LFAradius_tz	          LFAulna_tx	          LFAulna_ty	          LFAulna_tz	
0.38	        -10.96898938	         -2.73593210	         -4.80859877	          1.05193867	          0.97912256	         -0.34312788	         23.92545918	          8.64504035	          4.04353734	        -40.10883175	         22.89594355	         36.92028222	         -2.70740774	         -1.21299066	        -82.14813622	          7.72901104	         -2.69213545	          5.65263631	          8.08047998	        -18.25704988	        -19.20883590	         -9.01615431	         91.44389691	        107.81715324	        -29.68983093	        -12.84704670	         -2.44944310	         95.27033601	        110.84395685	          0.00000000	          0.00000000	          0.00000000	          0.00000000	          0.00000000	          0.00000000	          0.00000000	          0.00000000	          1.08520461	          1.01382378	         -0.46869530	          1.06392780	          1.02441489	         -0.22474422	          0.90853232	          1.07525740	         -0.41525643	          0.90366092	          1.07370643	         -0.30304669	          0.99300297	          0.90677827	         -0.17369066	          0.96464271	          0.75447760	         -0.20268906	          1.03241411	          0.60817948	         -0.21379962	          1.04166311	          0.88757197	         -0.52286504	          1.02090119	          0.72801583	         -0.48687309	          1.11788054	          0.61926250	         -0.48358888	          1.05245207	          0.35587918	         -0.29980481	          0.96588374	          0.33697557	         -0.22495938	          0.94397778	          0.19618944	         -0.31115231	          1.11664463	          0.41570374	         -0.42272082	          0.97819496	          0.41987351	         -0.47528330	          0.92906435	          0.30620147	         -0.42547486	          0.77534529	          0.10724165	         -0.30791828	          1.01495251	          0.07109866	         -0.34226140	          0.96837205	          0.05079043	         -0.24509666	          0.74213440	          0.31893993	         -0.39788451	          0.88813910	          0.13150395	         -0.41009135	          0.82351504	          0.14666057	         -0.50083391	          1.05093939	          1.50682164	         -0.50096825	          1.07750665	          1.47547426	         -0.17623563	          1.12734825	          1.44938015	         -0.31008329	          1.00851592	          1.52906562	         -0.33695437	          0.97781970	          1.37430933	         -0.10730488	          1.02039531	          1.31138505	         -0.09089269	          0.95739723	          1.23145282	         -0.04897984	          0.92827672	          1.17220561	         -0.02231232	          0.92354274	          1.14806310	         -0.10773709	          0.94167567	          1.41994328	         -0.55183304	          0.96032354	          1.34153180	         -0.58224592	          0.87956935	          1.28746581	         -0.60225030	          0.85345528	          1.22550431	         -0.62658705	          0.83745220	          1.20585912	         -0.53941784	          1.01711361	          1.10466117	         -0.02719920	          1.16049483	          1.04760241	         -0.12492639	          1.13276121	          1.00288876	         -0.08024932	          0.89968428	          1.14961265	         -0.62508627	          1.05369935	          1.07614681	         -0.53463503	          1.02542042	          1.02728065	         -0.58033233	
0.39	        -11.22655267	         -2.48122975	         -4.87983120	          1.05130332	          0.98407767	         -0.34337976	         21.93773578	          8.30105965	          4.51541028	        -38.06164296	         22.20763973	         38.21890445	         -2.62417238	         -1.35731222	        -80.35528793	          8.16775693	         -2.44854044	          5.26026100	          9.07041510	        -17.61200284	        -19.32331665	         -8.83092995	         93.59652690	        107.99257967	        -31.15441284	        -13.36274760	         -2.76132575	         96.76230216	        109.35619843	          0.00000000	          0.00000000	          0.00000000	          0.00000000	          0.00000000	          0.00000000	          0.00000000	          0.00000000	          1.08467189	          1.01856797	         -0.46860121	          1.06332573	          1.02925942	         -0.22467308	          0.90845022	          1.08089486	         -0.41535424	          0.90320698	          1.07881519	         -0.30309408	          0.99013013	          0.91053078	         -0.17457665	          0.95688594	          0.75911496	         -0.20325686	          1.01949738	          0.61095367	         -0.21522873	          1.04131997	          0.89385514	         -0.52403332	          1.02382780	          0.73407058	         -0.48890143	          1.12323971	          0.62754521	         -0.48394717	          1.03422793	          0.35739234	         -0.30065401	          0.94768641	          0.33927795	         -0.22623937	          0.92551570	          0.19806339	         -0.31181620	          1.12809987	          0.42263120	         -0.42268015	          0.98946225	          0.42048723	         -0.47508471	          0.94598453	          0.30411260	         -0.42553329	          0.75639086	          0.11041079	         -0.30803154	          0.99516354	          0.07100381	         -0.34255386	          0.94832052	          0.05109926	         -0.24533443	          0.75849340	          0.30712596	         -0.39748569	          0.91501217	          0.12810852	         -0.41076932	          0.84902334	          0.13995418	         -0.50125372	          1.04929183	          1.51191812	         -0.50109949	          1.07937066	          1.48156006	         -0.17689517	          1.12775975	          1.45419124	         -0.31112333	          1.00893308	          1.53414724	         -0.33685079	          0.98173508	          1.37937009	         -0.10728806	          1.02557286	          1.31695393	         -0.09126725	          0.96548837	          1.23566519	         -0.04841783	          0.93753392	          1.17591482	         -0.02139203	          0.93120060	          1.15226313	         -0.10735669	          0.93758848	          1.42788985	         -0.55070040	          0.95389485	          1.34997501	         -0.58276960	          0.87161813	          1.29806171	         -0.60229789	          0.84388607	          1.23691016	         -0.62634517	          0.82812593	          1.21705484	         -0.53912408	          1.02862422	          1.11266123	         -0.02967777	          1.17123057	          1.06259422	         -0.13166819	          1.14688612	          1.01604546	         -0.08667426	          0.88962328	          1.16142708	         -0.62571145	          1.04499712	          1.08821139	         -0.53899309	          1.01478792	          1.03922911	         -0.58316126	
0.4	        -11.43854180	         -2.16677054	         -4.89713046	          1.05099538	          0.98979059	         -0.34373104	         19.83263945	          7.83456508	          4.91882230	        -35.82569153	         21.04264257	         39.27374319	         -2.49078973	         -1.59909983	        -78.12527901	          8.52564179	         -2.21630597	          4.79137186	          9.89545274	        -17.06523368	        -19.44216475	         -8.66864818	         95.85342615	        108.29857828	        -32.70298585	        -13.86122192	         -2.95098776	         98.42295648	        107.30113897	          0.00000000	          0.00000000	          0.00000000	          0.00000000	          0.00000000	          0.00000000	          0.00000000	          0.00000000	          1.08427799	          1.02401294	         -0.46869629	          1.06286242	          1.03480542	         -0.22479197	          0.90872663	          1.08704414	         -0.41534747	          0.90295476	          1.08457805	         -0.30281826	          0.98772627	          0.91471254	         -0.17562294	          0.94913606	          0.76455756	         -0.20410755	          1.00635787	          0.61461817	         -0.21692853	          1.04121291	          0.90106552	         -0.52510565	          1.02630718	          0.74081880	         -0.49096207	          1.12800675	          0.63643944	         -0.48441617	          1.01602863	          0.35996134	         -0.30134810	          0.92952341	          0.34255139	         -0.22744320	          0.90739127	          0.20084406	         -0.31247873	          1.13893566	          0.43014396	         -0.42311608	          1.00023978	          0.42084227	         -0.47460146	          0.96315234	          0.30188874	         -0.42541799	          0.73796993	          0.11471259	         -0.30812762	          0.97539688	          0.07066659	         -0.34297338	          0.92828709	          0.05141622	         -0.24554352	          0.77577265	          0.29435397	         -0.39654972	          0.94268322	          0.12482534	         -0.41159725	          0.87542467	          0.13314143	         -0.50144824	          1.04785410	          1.51794277	         -0.50131057	          1.08114639	          1.48849533	         -0.17770177	          1.12833659	          1.45973643	         -0.31243818	          1.00949951	          1.53986323	         -0.33685259	          0.98503522	          1.38539363	         -0.10765017	          1.03029449	          1.32362476	         -0.09164744	          0.97308642	          1.24115267	         -0.04808344	          0.94612811	          1.18093227	         -0.02079069	          0.93795054	          1.15804289	         -0.10695391	          0.93388541	          1.43696219	         -0.54951888	          0.94785134	          1.35954486	         -0.58317978	          0.86434657	          1.30961769	         -0.60233261	          0.83485138	          1.24936088	         -0.62585812	          0.81916890	          1.22964850	         -0.53852766	          1.03900068	          1.12188318	         -0.03226759	          1.18063497	          1.07896650	         -0.13820145	          1.15985902	          1.03079674	         -0.09290616	          0.88026554	          1.17443536	         -0.62588056	          1.03680050	          1.10162261	         -0.54248230	          1.00516519	          1.05170575	         -0.58416141	
0.41	        -11.56503670	         -1.82696078	         -4.82525835	          1.05095148	          0.99615235	         -0.34413138	         17.63185192	          7.27553186	          5.16361886	        -33.51068421	         19.36265202	         40.04924780	         -2.31879916	         -1.90578671	        -75.49043601	          8.82675307	         -2.07296395	          4.28027483	         10.53391269	        -16.60083857	        -19.55652454	         -8.48099905	         98.15987979	        108.66617690	        -34.25046746	        -14.29979473	         -3.19347765	        100.10650525	        105.62622206	          0.00000000	          0.00000000	          0.00000000	          0.00000000	          0.00000000	          0.00000000	          0.00000000	          0.00000000	          1.08422700	          1.03001874	         -0.46890752	          1.06274218	          1.04091237	         -0.22502714	          0.90863409	          1.09378227	         -0.41502363	          0.90289350	          1.09087450	         -0.30236230	          0.98565785	          0.91930441	         -0.17671621	          0.94164109	          0.77070139	         -0.20501064	          0.99344783	          0.61917514	         -0.21859385	          1.04117916	          0.90898101	         -0.52599339	          1.02827618	          0.74813522	         -0.49286332	          1.13203839	          0.64573325	         -0.48487847	          0.99810519	          0.36359986	         -0.30172000	          0.91166917	          0.34686409	         -0.22842366	          0.88966797	          0.20474243	         -0.31317847	          1.14908429	          0.43772098	         -0.42413241	          1.01060312	          0.42080995	         -0.47388568	          0.98062968	          0.29957612	         -0.42510916	          0.72023853	          0.12028517	         -0.30815479	          0.95565828	          0.06999111	         -0.34354181	          0.90834669	          0.05178431	         -0.24584508	          0.79408271	          0.28079613	         -0.39514851	          0.97103714	          0.12191367	         -0.41245714	          0.90273012	          0.12640756	         -0.50135366	          1.04676487	          1.52465395	         -0.50149298	          1.08295671	          1.49583075	         -0.17874695	          1.12903056	          1.46586165	         -0.31395935	          1.01020443	          1.54603298	         -0.33689974	          0.98822228	          1.39229674	         -0.10773428	          1.03461691	          1.33097784	         -0.09200915	          0.97996371	          1.24762426	         -0.04785316	          0.95392470	          1.18692417	         -0.02040125	          0.94380212	          1.16482032	         -0.10661075	          0.93067077	          1.44702335	         -0.54827300	          0.94243237	          1.36983992	         -0.58338955	          0.85790827	          1.32168222	         -0.60216180	          0.82643205	          1.26241168	         -0.62502560	          0.81126257	          1.24297039	         -0.53761192	          1.04817422	          1.13181860	         -0.03485010	          1.18862909	          1.09610796	         -0.14453717	          1.17151570	          1.04656214	         -0.09901969	          0.87140399	          1.18785866	         -0.62563538	          1.02911156	          1.11556941	         -0.54506875	          0.99651827	          1.06466954	         -0.58458568	
